<svg width="60" height="60" viewBox="0 0 60 60" fill="none" xmlns="http://www.w3.org/2000/svg">
<g filter="url(#filter0_b_48_127)">
<rect width="60" height="60" rx="30" fill="white" fill-opacity="0.1"/>
<rect x="0.5" y="0.5" width="59" height="59" rx="29.5" stroke="white"/>
<path d="M29.9995 19.6099C27.907 22.162 26.8157 25.3365 26.9034 28.6871L26.9247 29.4988L25.3802 29.1368L24.2529 27.956C24.2944 26.0283 24.6696 24.1442 25.3715 22.3443C26.7136 18.9026 28.6664 17.0992 29.9995 15.7661L30.5294 17.9093L29.9995 19.6099Z" fill="white"/>
<path d="M26.0733 20.7838C25.8268 21.2639 25.5909 21.7819 25.3715 22.3444C24.7613 23.9092 24.3983 25.5377 24.2866 27.203C25.4508 27.4362 26.3593 27.7789 26.902 28.0172C26.9495 25.7408 27.5437 23.5609 28.6281 21.6208C27.6667 21.1004 26.7514 20.8769 26.0733 20.7838Z" fill="white"/>
<path d="M19.8979 37.1059C23.2224 37.6485 26.5412 36.944 29.3073 35.2488L29.9995 34.8246L30.5294 36.5619L29.9995 37.9094C27.5782 39.237 24.8676 39.9352 22.1109 39.9354C19.6833 39.9355 18.0815 39.4341 16.5687 39.0288L18.1325 37.5957L19.8979 37.1059Z" fill="white"/>
<path d="M22.7377 37.2709C23.3755 38.1672 23.7062 39.1064 23.8775 39.8393C26.0181 39.6062 28.098 38.952 29.9995 37.9094L30.0341 37.8216C29.8332 36.7584 29.4379 35.9227 29.1068 35.3687C27.1807 36.5052 24.9979 37.1673 22.7377 37.2709Z" fill="white"/>
<path d="M40.1011 37.1059C38.9368 34.017 36.7333 31.4847 33.7879 29.8862L33.0743 29.4988L34.3718 28.2197L35.746 27.956C37.395 28.9557 38.8395 30.2228 40.0473 31.731C42.3566 34.614 42.9413 37.2044 43.4302 39.0289L41.8309 38.635L40.1011 37.1059Z" fill="white"/>
<path d="M34.6215 30.3762C36.5078 31.5729 38.0437 33.1773 39.1391 35.0735C40.0344 34.4692 40.6611 33.7655 41.0807 33.1704C40.7803 32.7005 40.4392 32.22 40.0475 31.731C38.9896 30.4102 37.7503 29.2742 36.351 28.3409C35.7265 29.2461 35.0919 29.9275 34.6215 30.3762Z" fill="white"/>
<path d="M22.7325 48.6377C20.2371 48.6377 17.7417 47.099 15.9249 45.3589C5.82519 35.2593 9.37798 18.1629 22.5101 12.8376C35.5582 7.54666 49.9041 17.1332 49.9041 31.2845C49.9041 41.3227 42.5432 48.6377 37.2673 48.6377C33.0159 48.6377 30.5118 44.2686 31.4406 39.8606C33.0978 31.9969 37.9009 32.1163 40.3744 25.3326C35.4414 24.3358 32.7456 25.7849 29.9996 27.4678C27.2572 25.7871 24.5765 24.332 19.6246 25.3326C22.0954 32.1087 26.9036 32.008 28.5585 39.8606C29.4888 44.276 26.9779 48.6375 22.7325 48.6377ZM17.7782 43.4653C23.7997 48.9734 26.7842 44.2904 25.9659 40.407C24.4216 33.0786 19.2391 33.7258 16.6485 24.7413L16.2745 23.444C20.089 22.4219 24.4327 21.2513 29.9996 24.3779C32.4499 23.0017 34.8049 22.3569 37.3518 22.3569C39.9025 22.3569 41.9857 22.9781 43.7246 23.444L43.3506 24.7413C40.7603 33.7245 35.5777 33.077 34.0332 40.407C33.2166 44.2818 36.1844 48.9871 42.2208 43.4653C48.9287 36.7361 48.9217 25.8046 42.2007 19.0834C35.4573 12.34 24.5423 12.3395 17.7982 19.0834C11.0772 25.8046 11.0703 36.7362 17.7782 43.4653Z" fill="white"/>
<path d="M33.9024 41.5326C33.9119 41.1563 33.9552 40.7778 34.0334 40.407C34.5228 38.0844 35.3776 36.5628 36.3993 35.2819C35.2659 35.0808 34.3294 34.7624 33.6677 34.4889C32.7376 35.8215 31.944 37.4726 31.4408 39.8607C31.3855 40.123 31.3428 40.385 31.3115 40.646C32.2964 41.2003 33.2343 41.4349 33.9024 41.5326Z" fill="white"/>
<path d="M18.9348 29.8797C20.3711 32.0683 21.9874 33.3574 23.3486 34.9759C24.0228 34.1282 24.6959 33.4938 25.2048 33.069C23.7991 31.474 22.2439 30.1831 20.9494 28.0876C20.0249 28.6506 19.3696 29.3237 18.9348 29.8797Z" fill="white"/>
<path d="M37.3425 25.0064C37.2446 24.0001 36.9556 23.0561 36.6955 22.3718C34.4844 22.4703 32.4023 23.0725 30.2544 24.2375C30.7557 25.3429 30.9168 26.2604 30.9537 26.8969C32.7732 25.8446 34.6857 25.0045 37.3425 25.0064Z" fill="white"/>
<path d="M16.5687 39.0289C17.0181 37.3519 17.5927 34.6761 19.9516 31.731C21.1595 30.2228 22.6039 28.9557 24.2529 27.956L26.9246 29.4988L26.211 29.8862C23.2657 31.4848 21.0622 34.017 19.8979 37.106L16.5687 39.0289Z" fill="white"/>
<path d="M43.4303 39.0288L42.1508 39.3717C37.9986 40.4843 33.6745 39.9244 29.9995 37.9094V34.8246L30.6918 35.2488C33.4566 36.9433 36.7745 37.6487 40.1011 37.1058L43.4303 39.0288Z" fill="white"/>
<path d="M33.0744 29.4988L33.0956 28.6871C33.1834 25.3365 32.092 22.1619 29.9995 19.6099V15.7661L30.9362 16.7028C34.0502 19.8167 35.6583 23.8758 35.7461 27.9559L33.0744 29.4988Z" fill="white"/>
</g>
<defs>
<filter id="filter0_b_48_127" x="-10" y="-10" width="80" height="80" filterUnits="userSpaceOnUse" color-interpolation-filters="sRGB">
<feFlood flood-opacity="0" result="BackgroundImageFix"/>
<feGaussianBlur in="BackgroundImageFix" stdDeviation="5"/>
<feComposite in2="SourceAlpha" operator="in" result="effect1_backgroundBlur_48_127"/>
<feBlend mode="normal" in="SourceGraphic" in2="effect1_backgroundBlur_48_127" result="shape"/>
</filter>
</defs>
</svg>
